<svg width="20" height="20" viewBox="0 0 20 20" fill="none" xmlns="http://www.w3.org/2000/svg">
<path opacity="0.2" d="M10 20C15.5228 20 20 15.5228 20 10C20 4.47715 15.5228 0 10 0C4.47715 0 0 4.47715 0 10C0 15.5228 4.47715 20 10 20Z" fill="#F3BA2F"/>
<path fill-rule="evenodd" clip-rule="evenodd" d="M7.90948 9.14034L10.0011 7.0496L12.0936 9.14204L13.31 7.92485L10.0011 4.61523L6.69225 7.924L7.90948 9.14034ZM4.61548 10L5.83226 8.78329L7.04903 10L5.83226 11.2168L4.61548 10ZM10.0011 12.9509L7.90948 10.8594L6.69055 12.0748L6.69225 12.0765L10.0011 15.3845L13.31 12.0748L13.3108 12.074L12.0936 10.8585L10.0011 12.9509ZM12.9512 10.0003L14.1679 8.78359L15.3847 10.0003L14.1679 11.2171L12.9512 10.0003ZM10.0011 8.76438L11.2354 9.99942H11.2362L11.2354 10.0003L10.0011 11.2353L8.76689 10.002L8.76519 9.99942L8.76689 9.99772L8.98294 9.78168L9.08842 9.67705L10.0011 8.76438Z" fill="#F3BA2F"/>
</svg>
