<svg width="20" height="20" viewBox="0 0 20 20" fill="none" xmlns="http://www.w3.org/2000/svg">
<path d="M19.7 12.4192C18.3644 17.7764 12.9381 21.0364 7.58031 19.7008C2.22499 18.3652 -1.03532 12.9389 0.300619 7.58206C1.63562 2.22425 7.06156 -1.03638 12.4178 0.299249C17.7753 1.63487 21.0353 7.06175 19.6997 12.4192H19.7Z" fill="#F0B90B"/>
<path d="M10.0003 4.61523L11.3344 5.97741L7.97499 9.32677L6.64087 7.99664L10.0003 4.61523Z" fill="white"/>
<path d="M12.0256 6.63477L13.3597 7.99694L7.97499 13.3655L6.64087 12.0354L12.0256 6.63477Z" fill="white"/>
<path d="M5.9496 8.65381L7.28372 10.016L5.9496 11.3461L4.61548 10.016L5.9496 8.65381Z" fill="white"/>
<path d="M14.0507 8.65381L15.3848 10.016L10.0001 15.3846L8.66602 14.0544L14.0507 8.65381Z" fill="white"/>
</svg>
