<svg width="372" height="294" viewBox="0 0 372 294" fill="none" xmlns="http://www.w3.org/2000/svg">
<g filter="url(#filter0_f_8855_52715)">
<rect x="36" y="41.5" width="38" height="38" rx="8" fill="#282828"/>
<path d="M59.7917 53C61.2874 53 62.5 54.2126 62.5 55.7083V65.2917C62.5 66.7874 61.2874 68 59.7917 68H50.2083C48.7126 68 47.5 66.7874 47.5 65.2917V55.7083C47.5 54.2126 48.7126 53 50.2083 53H59.7917ZM59.7917 54.25H50.2083C49.4029 54.25 48.75 54.9029 48.75 55.7083V65.2917C48.75 66.0971 49.4029 66.75 50.2083 66.75H59.7917C60.5971 66.75 61.25 66.0971 61.25 65.2917V55.7083C61.25 54.9029 60.5971 54.25 59.7917 54.25ZM51.4583 56.3333C51.7747 56.3333 52.0362 56.5685 52.0776 56.8735L52.0833 56.9583V57.7917C52.0833 58.1368 51.8035 58.4167 51.4583 58.4167C51.1419 58.4167 50.8804 58.1815 50.839 57.8765L50.8333 57.7917V56.9583C50.8333 56.6132 51.1132 56.3333 51.4583 56.3333Z" fill="#8E8E8E"/>
<path d="M52.0776 63.1235C52.0362 62.8185 51.7747 62.5833 51.4583 62.5833C51.1132 62.5833 50.8333 62.8632 50.8333 63.2083V64.0417L50.839 64.1265C50.8804 64.4315 51.1419 64.6667 51.4583 64.6667C51.8035 64.6667 52.0833 64.3868 52.0833 64.0417V63.2083L52.0776 63.1235Z" fill="#8E8E8E"/>
<path d="M52.0833 59.9343C52.0419 59.6292 51.7805 59.3941 51.464 59.3941C51.1189 59.3941 50.839 59.6739 50.839 60.0191L50.8333 60.976L50.839 61.0608C50.8804 61.3658 51.1419 61.601 51.4583 61.601C51.8035 61.601 52.0833 61.3211 52.0833 60.976L52.089 60.0191L52.0833 59.9343Z" fill="#8E8E8E"/>
<path d="M96.16 61V59.728H101.056V45.304H100.936L96.328 49.408L95.512 48.496L100.288 44.248H102.496V59.728H107.104V61H96.16ZM116.311 61.288C112.535 61.288 110.647 58.4 110.647 52.624C110.647 46.848 112.535 43.96 116.311 43.96C120.087 43.96 121.975 46.848 121.975 52.624C121.975 58.4 120.087 61.288 116.311 61.288ZM116.311 60.04C117.719 60.04 118.759 59.48 119.431 58.36C120.119 57.24 120.463 55.704 120.463 53.752V51.496C120.463 49.544 120.119 48.008 119.431 46.888C118.759 45.768 117.719 45.208 116.311 45.208C114.887 45.208 113.839 45.768 113.167 46.888C112.495 48.008 112.159 49.544 112.159 51.496V53.752C112.159 55.704 112.495 57.24 113.167 58.36C113.839 59.48 114.887 60.04 116.311 60.04ZM131.421 61.288C127.645 61.288 125.757 58.4 125.757 52.624C125.757 46.848 127.645 43.96 131.421 43.96C135.197 43.96 137.085 46.848 137.085 52.624C137.085 58.4 135.197 61.288 131.421 61.288ZM131.421 60.04C132.829 60.04 133.869 59.48 134.541 58.36C135.229 57.24 135.573 55.704 135.573 53.752V51.496C135.573 49.544 135.229 48.008 134.541 46.888C133.869 45.768 132.829 45.208 131.421 45.208C129.997 45.208 128.949 45.768 128.277 46.888C127.605 48.008 127.269 49.544 127.269 51.496V53.752C127.269 55.704 127.605 57.24 128.277 58.36C128.949 59.48 129.997 60.04 131.421 60.04ZM143.772 61L155.388 44.248H156.732L145.116 61H143.772ZM144.636 53.344C143.532 53.344 142.644 52.96 141.972 52.192C141.316 51.424 140.988 50.248 140.988 48.664C140.988 47.064 141.316 45.88 141.972 45.112C142.644 44.344 143.532 43.96 144.636 43.96C145.74 43.96 146.62 44.344 147.276 45.112C147.948 45.88 148.284 47.064 148.284 48.664C148.284 50.248 147.948 51.424 147.276 52.192C146.62 52.96 145.74 53.344 144.636 53.344ZM144.636 52.432C145.356 52.432 145.932 52.176 146.364 51.664C146.812 51.152 147.036 50.344 147.036 49.24V48.064C147.036 46.96 146.812 46.152 146.364 45.64C145.932 45.128 145.356 44.872 144.636 44.872C143.916 44.872 143.332 45.128 142.884 45.64C142.452 46.152 142.236 46.96 142.236 48.064V49.24C142.236 50.344 142.452 51.152 142.884 51.664C143.332 52.176 143.916 52.432 144.636 52.432ZM155.82 61.288C154.716 61.288 153.828 60.904 153.156 60.136C152.5 59.368 152.172 58.192 152.172 56.608C152.172 55.008 152.5 53.824 153.156 53.056C153.828 52.288 154.716 51.904 155.82 51.904C156.924 51.904 157.804 52.288 158.46 53.056C159.132 53.824 159.468 55.008 159.468 56.608C159.468 58.192 159.132 59.368 158.46 60.136C157.804 60.904 156.924 61.288 155.82 61.288ZM155.82 60.376C156.54 60.376 157.116 60.12 157.548 59.608C157.996 59.096 158.22 58.288 158.22 57.184V56.008C158.22 54.904 157.996 54.096 157.548 53.584C157.116 53.072 156.54 52.816 155.82 52.816C155.1 52.816 154.516 53.072 154.068 53.584C153.636 54.096 153.42 54.904 153.42 56.008V57.184C153.42 58.288 153.636 59.096 154.068 59.608C154.516 60.12 155.1 60.376 155.82 60.376Z" fill="white"/>
<path d="M95.302 81V71.228H96.478V79.964H100.636V81H95.302ZM102.736 81V71.228H106.628C107.505 71.228 108.177 71.48 108.644 71.984C109.12 72.4787 109.358 73.16 109.358 74.028C109.358 74.896 109.12 75.582 108.644 76.086C108.177 76.5807 107.505 76.828 106.628 76.828H103.912V81H102.736ZM103.912 75.792H106.628C107.094 75.792 107.454 75.6707 107.706 75.428C107.967 75.1853 108.098 74.84 108.098 74.392V73.664C108.098 73.216 107.967 72.8707 107.706 72.628C107.454 72.3853 107.094 72.264 106.628 72.264H103.912V75.792ZM118.119 81.168C117.325 81.168 116.649 81.0187 116.089 80.72C115.529 80.412 115.053 79.992 114.661 79.46L115.529 78.732C115.874 79.1893 116.257 79.5393 116.677 79.782C117.097 80.0153 117.591 80.132 118.161 80.132C118.861 80.132 119.393 79.964 119.757 79.628C120.13 79.292 120.317 78.844 120.317 78.284C120.317 77.8173 120.177 77.458 119.897 77.206C119.617 76.954 119.155 76.7533 118.511 76.604L117.713 76.422C116.817 76.2167 116.131 75.9087 115.655 75.498C115.188 75.078 114.955 74.49 114.955 73.734C114.955 73.3047 115.034 72.922 115.193 72.586C115.351 72.25 115.571 71.97 115.851 71.746C116.14 71.522 116.481 71.354 116.873 71.242C117.274 71.1207 117.713 71.06 118.189 71.06C118.926 71.06 119.556 71.1953 120.079 71.466C120.611 71.7367 121.059 72.1333 121.423 72.656L120.541 73.3C120.27 72.9267 119.943 72.6327 119.561 72.418C119.178 72.2033 118.702 72.096 118.133 72.096C117.507 72.096 117.013 72.2313 116.649 72.502C116.294 72.7633 116.117 73.16 116.117 73.692C116.117 74.1587 116.266 74.5133 116.565 74.756C116.873 74.9893 117.335 75.176 117.951 75.316L118.749 75.498C119.71 75.7127 120.405 76.0393 120.835 76.478C121.264 76.9167 121.479 77.5 121.479 78.228C121.479 78.676 121.399 79.082 121.241 79.446C121.091 79.81 120.872 80.118 120.583 80.37C120.293 80.622 119.939 80.818 119.519 80.958C119.108 81.098 118.641 81.168 118.119 81.168ZM125.413 81C125.021 81 124.723 80.8927 124.517 80.678C124.321 80.454 124.223 80.1647 124.223 79.81V74.756H123.033V73.776H123.705C123.948 73.776 124.111 73.7293 124.195 73.636C124.289 73.5333 124.335 73.3607 124.335 73.118V71.774H125.343V73.776H126.925V74.756H125.343V80.02H126.813V81H125.413ZM134.395 81C133.975 81 133.672 80.888 133.485 80.664C133.308 80.44 133.196 80.16 133.149 79.824H133.079C132.921 80.272 132.659 80.608 132.295 80.832C131.931 81.056 131.497 81.168 130.993 81.168C130.228 81.168 129.631 80.972 129.201 80.58C128.781 80.188 128.571 79.656 128.571 78.984C128.571 78.3027 128.819 77.78 129.313 77.416C129.817 77.052 130.597 76.87 131.651 76.87H133.079V76.156C133.079 75.6427 132.939 75.2507 132.659 74.98C132.379 74.7093 131.95 74.574 131.371 74.574C130.933 74.574 130.564 74.672 130.265 74.868C129.976 75.064 129.733 75.3253 129.537 75.652L128.865 75.022C129.061 74.63 129.374 74.2987 129.803 74.028C130.233 73.748 130.774 73.608 131.427 73.608C132.305 73.608 132.986 73.8227 133.471 74.252C133.957 74.6813 134.199 75.2787 134.199 76.044V80.02H135.025V81H134.395ZM131.175 80.216C131.455 80.216 131.712 80.1833 131.945 80.118C132.179 80.0527 132.379 79.9593 132.547 79.838C132.715 79.7167 132.846 79.5767 132.939 79.418C133.033 79.2593 133.079 79.0867 133.079 78.9V77.71H131.595C130.951 77.71 130.48 77.8033 130.181 77.99C129.892 78.1767 129.747 78.4473 129.747 78.802V79.096C129.747 79.4507 129.873 79.726 130.125 79.922C130.387 80.118 130.737 80.216 131.175 80.216ZM137.044 70.64H138.164V77.206H138.22L139.326 75.974L141.37 73.776H142.728L140.054 76.632L142.994 81H141.636L139.242 77.318L138.164 78.424V81H137.044V70.64ZM145.407 72.082C145.164 72.082 144.987 72.026 144.875 71.914C144.772 71.7927 144.721 71.6387 144.721 71.452V71.27C144.721 71.0833 144.772 70.934 144.875 70.822C144.987 70.7007 145.164 70.64 145.407 70.64C145.649 70.64 145.822 70.7007 145.925 70.822C146.037 70.934 146.093 71.0833 146.093 71.27V71.452C146.093 71.6387 146.037 71.7927 145.925 71.914C145.822 72.026 145.649 72.082 145.407 72.082ZM144.847 73.776H145.967V81H144.847V73.776ZM148.767 81V73.776H149.887V74.952H149.943C150.12 74.5413 150.367 74.2147 150.685 73.972C151.011 73.7293 151.445 73.608 151.987 73.608C152.733 73.608 153.321 73.8507 153.751 74.336C154.189 74.812 154.409 75.4887 154.409 76.366V81H153.289V76.562C153.289 75.2647 152.743 74.616 151.651 74.616C151.427 74.616 151.207 74.644 150.993 74.7C150.787 74.756 150.601 74.84 150.433 74.952C150.265 75.064 150.129 75.2087 150.027 75.386C149.933 75.554 149.887 75.7547 149.887 75.988V81H148.767ZM163.234 81.798C163.234 82.5447 162.94 83.0907 162.352 83.436C161.773 83.7907 160.9 83.968 159.734 83.968C158.604 83.968 157.792 83.814 157.298 83.506C156.803 83.198 156.556 82.7593 156.556 82.19C156.556 81.798 156.658 81.49 156.864 81.266C157.069 81.0513 157.349 80.8927 157.704 80.79V80.636C157.274 80.4307 157.06 80.0947 157.06 79.628C157.06 79.264 157.176 78.9887 157.41 78.802C157.643 78.606 157.942 78.4613 158.306 78.368V78.312C157.876 78.1067 157.54 77.8127 157.298 77.43C157.064 77.0473 156.948 76.604 156.948 76.1C156.948 75.736 157.013 75.4 157.144 75.092C157.274 74.784 157.456 74.5227 157.69 74.308C157.932 74.084 158.217 73.9113 158.544 73.79C158.88 73.6687 159.253 73.608 159.664 73.608C160.177 73.608 160.634 73.7013 161.036 73.888V73.762C161.036 73.482 161.101 73.2533 161.232 73.076C161.362 72.8893 161.577 72.796 161.876 72.796H162.954V73.776H161.582V74.238C161.843 74.462 162.044 74.7327 162.184 75.05C162.333 75.358 162.408 75.708 162.408 76.1C162.408 76.464 162.342 76.8 162.212 77.108C162.081 77.416 161.894 77.682 161.652 77.906C161.418 78.1207 161.134 78.2887 160.798 78.41C160.462 78.5313 160.088 78.592 159.678 78.592C159.444 78.592 159.211 78.5687 158.978 78.522C158.735 78.5873 158.516 78.6853 158.32 78.816C158.124 78.9373 158.026 79.11 158.026 79.334C158.026 79.5487 158.128 79.6933 158.334 79.768C158.539 79.8427 158.805 79.88 159.132 79.88H160.672C161.568 79.88 162.216 80.0527 162.618 80.398C163.028 80.734 163.234 81.2007 163.234 81.798ZM162.184 81.882C162.184 81.5927 162.072 81.3593 161.848 81.182C161.633 81.014 161.246 80.93 160.686 80.93H158.278C157.83 81.1353 157.606 81.462 157.606 81.91C157.606 82.2273 157.722 82.498 157.956 82.722C158.198 82.946 158.604 83.058 159.174 83.058H160.21C160.835 83.058 161.32 82.96 161.666 82.764C162.011 82.568 162.184 82.274 162.184 81.882ZM159.678 77.696C160.154 77.696 160.532 77.584 160.812 77.36C161.092 77.1267 161.232 76.772 161.232 76.296V75.904C161.232 75.428 161.092 75.078 160.812 74.854C160.532 74.6207 160.154 74.504 159.678 74.504C159.202 74.504 158.824 74.6207 158.544 74.854C158.264 75.078 158.124 75.428 158.124 75.904V76.296C158.124 76.772 158.264 77.1267 158.544 77.36C158.824 77.584 159.202 77.696 159.678 77.696ZM174.919 81L173.939 78.116H169.991L169.011 81H167.821L171.237 71.228H172.735L176.151 81H174.919ZM171.993 72.32H171.923L170.271 77.08H173.645L171.993 72.32ZM178.19 81V71.228H182.082C182.959 71.228 183.631 71.48 184.098 71.984C184.574 72.4787 184.812 73.16 184.812 74.028C184.812 74.896 184.574 75.582 184.098 76.086C183.631 76.5807 182.959 76.828 182.082 76.828H179.366V81H178.19ZM179.366 75.792H182.082C182.548 75.792 182.908 75.6707 183.16 75.428C183.421 75.1853 183.552 74.84 183.552 74.392V73.664C183.552 73.216 183.421 72.8707 183.16 72.628C182.908 72.3853 182.548 72.264 182.082 72.264H179.366V75.792ZM189.34 81V77.136L185.98 71.228H187.324L189.928 75.932H189.97L192.574 71.228H193.918L190.516 77.094V81H189.34ZM199.407 76.632C199.407 75.96 199.473 75.3113 199.603 74.686C199.734 74.0607 199.911 73.482 200.135 72.95C200.369 72.4087 200.639 71.9187 200.947 71.48C201.255 71.0413 201.587 70.668 201.941 70.36H203.005C202.613 70.7147 202.259 71.116 201.941 71.564C201.633 72.012 201.367 72.488 201.143 72.992C200.929 73.496 200.761 74.0093 200.639 74.532C200.518 75.0547 200.457 75.5587 200.457 76.044V77.248C200.457 77.7427 200.518 78.2513 200.639 78.774C200.761 79.2967 200.933 79.81 201.157 80.314C201.381 80.818 201.647 81.294 201.955 81.742C202.273 82.19 202.623 82.582 203.005 82.918H201.941C201.596 82.6287 201.269 82.2647 200.961 81.826C200.653 81.3873 200.383 80.8973 200.149 80.356C199.925 79.8147 199.743 79.2313 199.603 78.606C199.473 77.9713 199.407 77.3133 199.407 76.632ZM204.657 71.228H208.675C209.487 71.228 210.121 71.4567 210.579 71.914C211.045 72.3713 211.279 72.9827 211.279 73.748C211.279 74.112 211.227 74.42 211.125 74.672C211.022 74.924 210.891 75.134 210.733 75.302C210.574 75.4607 210.401 75.582 210.215 75.666C210.028 75.7407 209.855 75.792 209.697 75.82V75.904C209.874 75.9133 210.07 75.96 210.285 76.044C210.509 76.128 210.719 76.2633 210.915 76.45C211.111 76.6273 211.274 76.8607 211.405 77.15C211.545 77.43 211.615 77.7707 211.615 78.172C211.615 78.5733 211.549 78.9467 211.419 79.292C211.297 79.6373 211.125 79.936 210.901 80.188C210.677 80.44 210.411 80.6407 210.103 80.79C209.795 80.93 209.459 81 209.095 81H204.657V71.228ZM205.833 79.964H208.731C209.235 79.964 209.631 79.838 209.921 79.586C210.21 79.3247 210.355 78.9467 210.355 78.452V77.976C210.355 77.4813 210.21 77.108 209.921 76.856C209.631 76.5947 209.235 76.464 208.731 76.464H205.833V79.964ZM205.833 75.456H208.535C209.001 75.456 209.365 75.3393 209.627 75.106C209.888 74.8727 210.019 74.5367 210.019 74.098V73.622C210.019 73.1833 209.888 72.8473 209.627 72.614C209.365 72.3807 209.001 72.264 208.535 72.264H205.833V75.456ZM216.589 75.036L215.413 72.866H215.371V81H214.223V71.228H215.581L219.151 77.192L220.327 79.362H220.369V71.228H221.517V81H220.159L216.589 75.036ZM224.542 71.228H228.56C229.372 71.228 230.006 71.4567 230.464 71.914C230.93 72.3713 231.164 72.9827 231.164 73.748C231.164 74.112 231.112 74.42 231.01 74.672C230.907 74.924 230.776 75.134 230.618 75.302C230.459 75.4607 230.286 75.582 230.1 75.666C229.913 75.7407 229.74 75.792 229.582 75.82V75.904C229.759 75.9133 229.955 75.96 230.17 76.044C230.394 76.128 230.604 76.2633 230.8 76.45C230.996 76.6273 231.159 76.8607 231.29 77.15C231.43 77.43 231.5 77.7707 231.5 78.172C231.5 78.5733 231.434 78.9467 231.304 79.292C231.182 79.6373 231.01 79.936 230.786 80.188C230.562 80.44 230.296 80.6407 229.988 80.79C229.68 80.93 229.344 81 228.98 81H224.542V71.228ZM225.718 79.964H228.616C229.12 79.964 229.516 79.838 229.806 79.586C230.095 79.3247 230.24 78.9467 230.24 78.452V77.976C230.24 77.4813 230.095 77.108 229.806 76.856C229.516 76.5947 229.12 76.464 228.616 76.464H225.718V79.964ZM225.718 75.456H228.42C228.886 75.456 229.25 75.3393 229.512 75.106C229.773 74.8727 229.904 74.5367 229.904 74.098V73.622C229.904 73.1833 229.773 72.8473 229.512 72.614C229.25 72.3807 228.886 72.264 228.42 72.264H225.718V75.456ZM232.727 83.114L236.381 70.64H237.389L233.735 83.114H232.727ZM242.048 75.036L240.872 72.866H240.83V81H239.682V71.228H241.04L244.61 77.192L245.786 79.362H245.828V71.228H246.976V81H245.618L242.048 75.036ZM250.001 71.228H254.019C254.831 71.228 255.466 71.4567 255.923 71.914C256.39 72.3713 256.623 72.9827 256.623 73.748C256.623 74.112 256.572 74.42 256.469 74.672C256.366 74.924 256.236 75.134 256.077 75.302C255.918 75.4607 255.746 75.582 255.559 75.666C255.372 75.7407 255.2 75.792 255.041 75.82V75.904C255.218 75.9133 255.414 75.96 255.629 76.044C255.853 76.128 256.063 76.2633 256.259 76.45C256.455 76.6273 256.618 76.8607 256.749 77.15C256.889 77.43 256.959 77.7707 256.959 78.172C256.959 78.5733 256.894 78.9467 256.763 79.292C256.642 79.6373 256.469 79.936 256.245 80.188C256.021 80.44 255.755 80.6407 255.447 80.79C255.139 80.93 254.803 81 254.439 81H250.001V71.228ZM251.177 79.964H254.075C254.579 79.964 254.976 79.838 255.265 79.586C255.554 79.3247 255.699 78.9467 255.699 78.452V77.976C255.699 77.4813 255.554 77.108 255.265 76.856C254.976 76.5947 254.579 76.464 254.075 76.464H251.177V79.964ZM251.177 75.456H253.879C254.346 75.456 254.71 75.3393 254.971 75.106C255.232 74.8727 255.363 74.5367 255.363 74.098V73.622C255.363 73.1833 255.232 72.8473 254.971 72.614C254.71 72.3807 254.346 72.264 253.879 72.264H251.177V75.456ZM260.673 71.228V77.276C260.673 78.2093 260.846 78.9187 261.191 79.404C261.537 79.88 262.143 80.118 263.011 80.118C263.879 80.118 264.486 79.88 264.831 79.404C265.177 78.9187 265.349 78.2093 265.349 77.276V71.228H266.525V76.996C266.525 77.7053 266.46 78.3213 266.329 78.844C266.208 79.3667 266.007 79.8007 265.727 80.146C265.447 80.4913 265.079 80.748 264.621 80.916C264.173 81.084 263.623 81.168 262.969 81.168C262.316 81.168 261.765 81.084 261.317 80.916C260.879 80.748 260.524 80.4913 260.253 80.146C259.983 79.8007 259.787 79.3667 259.665 78.844C259.553 78.3213 259.497 77.7053 259.497 76.996V71.228H260.673ZM273.092 73.776H274.212V74.952H274.268C274.455 74.4947 274.726 74.1587 275.08 73.944C275.444 73.72 275.878 73.608 276.382 73.608C276.83 73.608 277.236 73.6967 277.6 73.874C277.964 74.0513 278.272 74.3033 278.524 74.63C278.786 74.9567 278.982 75.3533 279.112 75.82C279.252 76.2867 279.322 76.8093 279.322 77.388C279.322 77.9667 279.252 78.4893 279.112 78.956C278.982 79.4227 278.786 79.8193 278.524 80.146C278.272 80.4727 277.964 80.7247 277.6 80.902C277.236 81.0793 276.83 81.168 276.382 81.168C275.402 81.168 274.698 80.72 274.268 79.824H274.212V83.8H273.092V73.776ZM276.074 80.16C276.709 80.16 277.208 79.964 277.572 79.572C277.936 79.1707 278.118 78.648 278.118 78.004V76.772C278.118 76.128 277.936 75.61 277.572 75.218C277.208 74.8167 276.709 74.616 276.074 74.616C275.822 74.616 275.58 74.6533 275.346 74.728C275.122 74.7933 274.926 74.8867 274.758 75.008C274.59 75.1293 274.455 75.2787 274.352 75.456C274.259 75.624 274.212 75.806 274.212 76.002V78.69C274.212 78.9233 274.259 79.1333 274.352 79.32C274.455 79.4973 274.59 79.6513 274.758 79.782C274.926 79.9033 275.122 79.9967 275.346 80.062C275.58 80.1273 275.822 80.16 276.074 80.16ZM286.883 81C286.463 81 286.16 80.888 285.973 80.664C285.796 80.44 285.684 80.16 285.637 79.824H285.567C285.409 80.272 285.147 80.608 284.783 80.832C284.419 81.056 283.985 81.168 283.481 81.168C282.716 81.168 282.119 80.972 281.689 80.58C281.269 80.188 281.059 79.656 281.059 78.984C281.059 78.3027 281.307 77.78 281.801 77.416C282.305 77.052 283.085 76.87 284.139 76.87H285.567V76.156C285.567 75.6427 285.427 75.2507 285.147 74.98C284.867 74.7093 284.438 74.574 283.859 74.574C283.421 74.574 283.052 74.672 282.753 74.868C282.464 75.064 282.221 75.3253 282.025 75.652L281.353 75.022C281.549 74.63 281.862 74.2987 282.291 74.028C282.721 73.748 283.262 73.608 283.915 73.608C284.793 73.608 285.474 73.8227 285.959 74.252C286.445 74.6813 286.687 75.2787 286.687 76.044V80.02H287.513V81H286.883ZM283.663 80.216C283.943 80.216 284.2 80.1833 284.433 80.118C284.667 80.0527 284.867 79.9593 285.035 79.838C285.203 79.7167 285.334 79.5767 285.427 79.418C285.521 79.2593 285.567 79.0867 285.567 78.9V77.71H284.083C283.439 77.71 282.968 77.8033 282.669 77.99C282.38 78.1767 282.235 78.4473 282.235 78.802V79.096C282.235 79.4507 282.361 79.726 282.613 79.922C282.875 80.118 283.225 80.216 283.663 80.216ZM290.092 72.082C289.849 72.082 289.672 72.026 289.56 71.914C289.457 71.7927 289.406 71.6387 289.406 71.452V71.27C289.406 71.0833 289.457 70.934 289.56 70.822C289.672 70.7007 289.849 70.64 290.092 70.64C290.335 70.64 290.507 70.7007 290.61 70.822C290.722 70.934 290.778 71.0833 290.778 71.27V71.452C290.778 71.6387 290.722 71.7927 290.61 71.914C290.507 72.026 290.335 72.082 290.092 72.082ZM289.532 73.776H290.652V81H289.532V73.776ZM293.452 81V73.776H294.572V75.106H294.642C294.773 74.7607 295.006 74.4527 295.342 74.182C295.678 73.9113 296.14 73.776 296.728 73.776H297.162V74.896H296.504C295.897 74.896 295.421 75.0127 295.076 75.246C294.74 75.47 294.572 75.7547 294.572 76.1V81H293.452ZM301.35 76.632C301.35 77.3133 301.28 77.9713 301.14 78.606C301.01 79.2313 300.828 79.8147 300.594 80.356C300.37 80.8973 300.104 81.3873 299.796 81.826C299.488 82.2647 299.162 82.6287 298.816 82.918H297.752C298.135 82.582 298.48 82.19 298.788 81.742C299.106 81.294 299.376 80.818 299.6 80.314C299.824 79.81 299.997 79.2967 300.118 78.774C300.24 78.2513 300.3 77.7427 300.3 77.248V76.044C300.3 75.5587 300.24 75.0547 300.118 74.532C299.997 74.0093 299.824 73.496 299.6 72.992C299.386 72.488 299.12 72.012 298.802 71.564C298.494 71.116 298.144 70.7147 297.752 70.36H298.816C299.171 70.668 299.502 71.0413 299.81 71.48C300.118 71.9187 300.384 72.4087 300.608 72.95C300.842 73.482 301.024 74.0607 301.154 74.686C301.285 75.3113 301.35 75.96 301.35 76.632Z" fill="#8E8E8E"/>
<rect x="20" y="101" width="332" height="1" fill="#2D2D2D"/>
<rect x="36" y="123.5" width="38" height="38" rx="8" fill="#282828"/>
<path d="M59.7917 135C61.2874 135 62.5 136.213 62.5 137.708V147.292C62.5 148.787 61.2874 150 59.7917 150H50.2083C48.7126 150 47.5 148.787 47.5 147.292V137.708C47.5 136.213 48.7126 135 50.2083 135H59.7917ZM59.7917 136.25H50.2083C49.4029 136.25 48.75 136.903 48.75 137.708V147.292C48.75 148.097 49.4029 148.75 50.2083 148.75H59.7917C60.5971 148.75 61.25 148.097 61.25 147.292V137.708C61.25 136.903 60.5971 136.25 59.7917 136.25ZM51.4583 138.333C51.7747 138.333 52.0362 138.568 52.0776 138.874L52.0833 138.958V139.792C52.0833 140.137 51.8035 140.417 51.4583 140.417C51.1419 140.417 50.8804 140.182 50.839 139.876L50.8333 139.792V138.958C50.8333 138.613 51.1132 138.333 51.4583 138.333Z" fill="#8E8E8E"/>
<path d="M52.0776 145.124C52.0362 144.818 51.7747 144.583 51.4583 144.583C51.1132 144.583 50.8333 144.863 50.8333 145.208V146.042L50.839 146.126C50.8804 146.432 51.1419 146.667 51.4583 146.667C51.8035 146.667 52.0833 146.387 52.0833 146.042V145.208L52.0776 145.124Z" fill="#8E8E8E"/>
<path d="M52.0833 141.934C52.0419 141.629 51.7805 141.394 51.464 141.394C51.1189 141.394 50.839 141.674 50.839 142.019L50.8333 142.976L50.839 143.061C50.8804 143.366 51.1419 143.601 51.4583 143.601C51.8035 143.601 52.0833 143.321 52.0833 142.976L52.089 142.019L52.0833 141.934Z" fill="#8E8E8E"/>
<path d="M96.16 143V141.728H101.056V127.304H100.936L96.328 131.408L95.512 130.496L100.288 126.248H102.496V141.728H107.104V143H96.16ZM116.311 143.288C112.535 143.288 110.647 140.4 110.647 134.624C110.647 128.848 112.535 125.96 116.311 125.96C120.087 125.96 121.975 128.848 121.975 134.624C121.975 140.4 120.087 143.288 116.311 143.288ZM116.311 142.04C117.719 142.04 118.759 141.48 119.431 140.36C120.119 139.24 120.463 137.704 120.463 135.752V133.496C120.463 131.544 120.119 130.008 119.431 128.888C118.759 127.768 117.719 127.208 116.311 127.208C114.887 127.208 113.839 127.768 113.167 128.888C112.495 130.008 112.159 131.544 112.159 133.496V135.752C112.159 137.704 112.495 139.24 113.167 140.36C113.839 141.48 114.887 142.04 116.311 142.04ZM131.421 143.288C127.645 143.288 125.757 140.4 125.757 134.624C125.757 128.848 127.645 125.96 131.421 125.96C135.197 125.96 137.085 128.848 137.085 134.624C137.085 140.4 135.197 143.288 131.421 143.288ZM131.421 142.04C132.829 142.04 133.869 141.48 134.541 140.36C135.229 139.24 135.573 137.704 135.573 135.752V133.496C135.573 131.544 135.229 130.008 134.541 128.888C133.869 127.768 132.829 127.208 131.421 127.208C129.997 127.208 128.949 127.768 128.277 128.888C127.605 130.008 127.269 131.544 127.269 133.496V135.752C127.269 137.704 127.605 139.24 128.277 140.36C128.949 141.48 129.997 142.04 131.421 142.04ZM143.772 143L155.388 126.248H156.732L145.116 143H143.772ZM144.636 135.344C143.532 135.344 142.644 134.96 141.972 134.192C141.316 133.424 140.988 132.248 140.988 130.664C140.988 129.064 141.316 127.88 141.972 127.112C142.644 126.344 143.532 125.96 144.636 125.96C145.74 125.96 146.62 126.344 147.276 127.112C147.948 127.88 148.284 129.064 148.284 130.664C148.284 132.248 147.948 133.424 147.276 134.192C146.62 134.96 145.74 135.344 144.636 135.344ZM144.636 134.432C145.356 134.432 145.932 134.176 146.364 133.664C146.812 133.152 147.036 132.344 147.036 131.24V130.064C147.036 128.96 146.812 128.152 146.364 127.64C145.932 127.128 145.356 126.872 144.636 126.872C143.916 126.872 143.332 127.128 142.884 127.64C142.452 128.152 142.236 128.96 142.236 130.064V131.24C142.236 132.344 142.452 133.152 142.884 133.664C143.332 134.176 143.916 134.432 144.636 134.432ZM155.82 143.288C154.716 143.288 153.828 142.904 153.156 142.136C152.5 141.368 152.172 140.192 152.172 138.608C152.172 137.008 152.5 135.824 153.156 135.056C153.828 134.288 154.716 133.904 155.82 133.904C156.924 133.904 157.804 134.288 158.46 135.056C159.132 135.824 159.468 137.008 159.468 138.608C159.468 140.192 159.132 141.368 158.46 142.136C157.804 142.904 156.924 143.288 155.82 143.288ZM155.82 142.376C156.54 142.376 157.116 142.12 157.548 141.608C157.996 141.096 158.22 140.288 158.22 139.184V138.008C158.22 136.904 157.996 136.096 157.548 135.584C157.116 135.072 156.54 134.816 155.82 134.816C155.1 134.816 154.516 135.072 154.068 135.584C153.636 136.096 153.42 136.904 153.42 138.008V139.184C153.42 140.288 153.636 141.096 154.068 141.608C154.516 142.12 155.1 142.376 155.82 142.376Z" fill="white"/>
<path d="M95.302 163V153.228H96.478V161.964H100.636V163H95.302ZM102.736 163V153.228H106.628C107.505 153.228 108.177 153.48 108.644 153.984C109.12 154.479 109.358 155.16 109.358 156.028C109.358 156.896 109.12 157.582 108.644 158.086C108.177 158.581 107.505 158.828 106.628 158.828H103.912V163H102.736ZM103.912 157.792H106.628C107.094 157.792 107.454 157.671 107.706 157.428C107.967 157.185 108.098 156.84 108.098 156.392V155.664C108.098 155.216 107.967 154.871 107.706 154.628C107.454 154.385 107.094 154.264 106.628 154.264H103.912V157.792ZM118.119 163.168C117.325 163.168 116.649 163.019 116.089 162.72C115.529 162.412 115.053 161.992 114.661 161.46L115.529 160.732C115.874 161.189 116.257 161.539 116.677 161.782C117.097 162.015 117.591 162.132 118.161 162.132C118.861 162.132 119.393 161.964 119.757 161.628C120.13 161.292 120.317 160.844 120.317 160.284C120.317 159.817 120.177 159.458 119.897 159.206C119.617 158.954 119.155 158.753 118.511 158.604L117.713 158.422C116.817 158.217 116.131 157.909 115.655 157.498C115.188 157.078 114.955 156.49 114.955 155.734C114.955 155.305 115.034 154.922 115.193 154.586C115.351 154.25 115.571 153.97 115.851 153.746C116.14 153.522 116.481 153.354 116.873 153.242C117.274 153.121 117.713 153.06 118.189 153.06C118.926 153.06 119.556 153.195 120.079 153.466C120.611 153.737 121.059 154.133 121.423 154.656L120.541 155.3C120.27 154.927 119.943 154.633 119.561 154.418C119.178 154.203 118.702 154.096 118.133 154.096C117.507 154.096 117.013 154.231 116.649 154.502C116.294 154.763 116.117 155.16 116.117 155.692C116.117 156.159 116.266 156.513 116.565 156.756C116.873 156.989 117.335 157.176 117.951 157.316L118.749 157.498C119.71 157.713 120.405 158.039 120.835 158.478C121.264 158.917 121.479 159.5 121.479 160.228C121.479 160.676 121.399 161.082 121.241 161.446C121.091 161.81 120.872 162.118 120.583 162.37C120.293 162.622 119.939 162.818 119.519 162.958C119.108 163.098 118.641 163.168 118.119 163.168ZM125.413 163C125.021 163 124.723 162.893 124.517 162.678C124.321 162.454 124.223 162.165 124.223 161.81V156.756H123.033V155.776H123.705C123.948 155.776 124.111 155.729 124.195 155.636C124.289 155.533 124.335 155.361 124.335 155.118V153.774H125.343V155.776H126.925V156.756H125.343V162.02H126.813V163H125.413ZM134.395 163C133.975 163 133.672 162.888 133.485 162.664C133.308 162.44 133.196 162.16 133.149 161.824H133.079C132.921 162.272 132.659 162.608 132.295 162.832C131.931 163.056 131.497 163.168 130.993 163.168C130.228 163.168 129.631 162.972 129.201 162.58C128.781 162.188 128.571 161.656 128.571 160.984C128.571 160.303 128.819 159.78 129.313 159.416C129.817 159.052 130.597 158.87 131.651 158.87H133.079V158.156C133.079 157.643 132.939 157.251 132.659 156.98C132.379 156.709 131.95 156.574 131.371 156.574C130.933 156.574 130.564 156.672 130.265 156.868C129.976 157.064 129.733 157.325 129.537 157.652L128.865 157.022C129.061 156.63 129.374 156.299 129.803 156.028C130.233 155.748 130.774 155.608 131.427 155.608C132.305 155.608 132.986 155.823 133.471 156.252C133.957 156.681 134.199 157.279 134.199 158.044V162.02H135.025V163H134.395ZM131.175 162.216C131.455 162.216 131.712 162.183 131.945 162.118C132.179 162.053 132.379 161.959 132.547 161.838C132.715 161.717 132.846 161.577 132.939 161.418C133.033 161.259 133.079 161.087 133.079 160.9V159.71H131.595C130.951 159.71 130.48 159.803 130.181 159.99C129.892 160.177 129.747 160.447 129.747 160.802V161.096C129.747 161.451 129.873 161.726 130.125 161.922C130.387 162.118 130.737 162.216 131.175 162.216ZM137.044 152.64H138.164V159.206H138.22L139.326 157.974L141.37 155.776H142.728L140.054 158.632L142.994 163H141.636L139.242 159.318L138.164 160.424V163H137.044V152.64ZM145.407 154.082C145.164 154.082 144.987 154.026 144.875 153.914C144.772 153.793 144.721 153.639 144.721 153.452V153.27C144.721 153.083 144.772 152.934 144.875 152.822C144.987 152.701 145.164 152.64 145.407 152.64C145.649 152.64 145.822 152.701 145.925 152.822C146.037 152.934 146.093 153.083 146.093 153.27V153.452C146.093 153.639 146.037 153.793 145.925 153.914C145.822 154.026 145.649 154.082 145.407 154.082ZM144.847 155.776H145.967V163H144.847V155.776ZM148.767 163V155.776H149.887V156.952H149.943C150.12 156.541 150.367 156.215 150.685 155.972C151.011 155.729 151.445 155.608 151.987 155.608C152.733 155.608 153.321 155.851 153.751 156.336C154.189 156.812 154.409 157.489 154.409 158.366V163H153.289V158.562C153.289 157.265 152.743 156.616 151.651 156.616C151.427 156.616 151.207 156.644 150.993 156.7C150.787 156.756 150.601 156.84 150.433 156.952C150.265 157.064 150.129 157.209 150.027 157.386C149.933 157.554 149.887 157.755 149.887 157.988V163H148.767ZM163.234 163.798C163.234 164.545 162.94 165.091 162.352 165.436C161.773 165.791 160.9 165.968 159.734 165.968C158.604 165.968 157.792 165.814 157.298 165.506C156.803 165.198 156.556 164.759 156.556 164.19C156.556 163.798 156.658 163.49 156.864 163.266C157.069 163.051 157.349 162.893 157.704 162.79V162.636C157.274 162.431 157.06 162.095 157.06 161.628C157.06 161.264 157.176 160.989 157.41 160.802C157.643 160.606 157.942 160.461 158.306 160.368V160.312C157.876 160.107 157.54 159.813 157.298 159.43C157.064 159.047 156.948 158.604 156.948 158.1C156.948 157.736 157.013 157.4 157.144 157.092C157.274 156.784 157.456 156.523 157.69 156.308C157.932 156.084 158.217 155.911 158.544 155.79C158.88 155.669 159.253 155.608 159.664 155.608C160.177 155.608 160.634 155.701 161.036 155.888V155.762C161.036 155.482 161.101 155.253 161.232 155.076C161.362 154.889 161.577 154.796 161.876 154.796H162.954V155.776H161.582V156.238C161.843 156.462 162.044 156.733 162.184 157.05C162.333 157.358 162.408 157.708 162.408 158.1C162.408 158.464 162.342 158.8 162.212 159.108C162.081 159.416 161.894 159.682 161.652 159.906C161.418 160.121 161.134 160.289 160.798 160.41C160.462 160.531 160.088 160.592 159.678 160.592C159.444 160.592 159.211 160.569 158.978 160.522C158.735 160.587 158.516 160.685 158.32 160.816C158.124 160.937 158.026 161.11 158.026 161.334C158.026 161.549 158.128 161.693 158.334 161.768C158.539 161.843 158.805 161.88 159.132 161.88H160.672C161.568 161.88 162.216 162.053 162.618 162.398C163.028 162.734 163.234 163.201 163.234 163.798ZM162.184 163.882C162.184 163.593 162.072 163.359 161.848 163.182C161.633 163.014 161.246 162.93 160.686 162.93H158.278C157.83 163.135 157.606 163.462 157.606 163.91C157.606 164.227 157.722 164.498 157.956 164.722C158.198 164.946 158.604 165.058 159.174 165.058H160.21C160.835 165.058 161.32 164.96 161.666 164.764C162.011 164.568 162.184 164.274 162.184 163.882ZM159.678 159.696C160.154 159.696 160.532 159.584 160.812 159.36C161.092 159.127 161.232 158.772 161.232 158.296V157.904C161.232 157.428 161.092 157.078 160.812 156.854C160.532 156.621 160.154 156.504 159.678 156.504C159.202 156.504 158.824 156.621 158.544 156.854C158.264 157.078 158.124 157.428 158.124 157.904V158.296C158.124 158.772 158.264 159.127 158.544 159.36C158.824 159.584 159.202 159.696 159.678 159.696ZM174.919 163L173.939 160.116H169.991L169.011 163H167.821L171.237 153.228H172.735L176.151 163H174.919ZM171.993 154.32H171.923L170.271 159.08H173.645L171.993 154.32ZM178.19 163V153.228H182.082C182.959 153.228 183.631 153.48 184.098 153.984C184.574 154.479 184.812 155.16 184.812 156.028C184.812 156.896 184.574 157.582 184.098 158.086C183.631 158.581 182.959 158.828 182.082 158.828H179.366V163H178.19ZM179.366 157.792H182.082C182.548 157.792 182.908 157.671 183.16 157.428C183.421 157.185 183.552 156.84 183.552 156.392V155.664C183.552 155.216 183.421 154.871 183.16 154.628C182.908 154.385 182.548 154.264 182.082 154.264H179.366V157.792ZM189.34 163V159.136L185.98 153.228H187.324L189.928 157.932H189.97L192.574 153.228H193.918L190.516 159.094V163H189.34ZM199.407 158.632C199.407 157.96 199.473 157.311 199.603 156.686C199.734 156.061 199.911 155.482 200.135 154.95C200.369 154.409 200.639 153.919 200.947 153.48C201.255 153.041 201.587 152.668 201.941 152.36H203.005C202.613 152.715 202.259 153.116 201.941 153.564C201.633 154.012 201.367 154.488 201.143 154.992C200.929 155.496 200.761 156.009 200.639 156.532C200.518 157.055 200.457 157.559 200.457 158.044V159.248C200.457 159.743 200.518 160.251 200.639 160.774C200.761 161.297 200.933 161.81 201.157 162.314C201.381 162.818 201.647 163.294 201.955 163.742C202.273 164.19 202.623 164.582 203.005 164.918H201.941C201.596 164.629 201.269 164.265 200.961 163.826C200.653 163.387 200.383 162.897 200.149 162.356C199.925 161.815 199.743 161.231 199.603 160.606C199.473 159.971 199.407 159.313 199.407 158.632ZM204.657 153.228H208.675C209.487 153.228 210.121 153.457 210.579 153.914C211.045 154.371 211.279 154.983 211.279 155.748C211.279 156.112 211.227 156.42 211.125 156.672C211.022 156.924 210.891 157.134 210.733 157.302C210.574 157.461 210.401 157.582 210.215 157.666C210.028 157.741 209.855 157.792 209.697 157.82V157.904C209.874 157.913 210.07 157.96 210.285 158.044C210.509 158.128 210.719 158.263 210.915 158.45C211.111 158.627 211.274 158.861 211.405 159.15C211.545 159.43 211.615 159.771 211.615 160.172C211.615 160.573 211.549 160.947 211.419 161.292C211.297 161.637 211.125 161.936 210.901 162.188C210.677 162.44 210.411 162.641 210.103 162.79C209.795 162.93 209.459 163 209.095 163H204.657V153.228ZM205.833 161.964H208.731C209.235 161.964 209.631 161.838 209.921 161.586C210.21 161.325 210.355 160.947 210.355 160.452V159.976C210.355 159.481 210.21 159.108 209.921 158.856C209.631 158.595 209.235 158.464 208.731 158.464H205.833V161.964ZM205.833 157.456H208.535C209.001 157.456 209.365 157.339 209.627 157.106C209.888 156.873 210.019 156.537 210.019 156.098V155.622C210.019 155.183 209.888 154.847 209.627 154.614C209.365 154.381 209.001 154.264 208.535 154.264H205.833V157.456ZM216.589 157.036L215.413 154.866H215.371V163H214.223V153.228H215.581L219.151 159.192L220.327 161.362H220.369V153.228H221.517V163H220.159L216.589 157.036ZM224.542 153.228H228.56C229.372 153.228 230.006 153.457 230.464 153.914C230.93 154.371 231.164 154.983 231.164 155.748C231.164 156.112 231.112 156.42 231.01 156.672C230.907 156.924 230.776 157.134 230.618 157.302C230.459 157.461 230.286 157.582 230.1 157.666C229.913 157.741 229.74 157.792 229.582 157.82V157.904C229.759 157.913 229.955 157.96 230.17 158.044C230.394 158.128 230.604 158.263 230.8 158.45C230.996 158.627 231.159 158.861 231.29 159.15C231.43 159.43 231.5 159.771 231.5 160.172C231.5 160.573 231.434 160.947 231.304 161.292C231.182 161.637 231.01 161.936 230.786 162.188C230.562 162.44 230.296 162.641 229.988 162.79C229.68 162.93 229.344 163 228.98 163H224.542V153.228ZM225.718 161.964H228.616C229.12 161.964 229.516 161.838 229.806 161.586C230.095 161.325 230.24 160.947 230.24 160.452V159.976C230.24 159.481 230.095 159.108 229.806 158.856C229.516 158.595 229.12 158.464 228.616 158.464H225.718V161.964ZM225.718 157.456H228.42C228.886 157.456 229.25 157.339 229.512 157.106C229.773 156.873 229.904 156.537 229.904 156.098V155.622C229.904 155.183 229.773 154.847 229.512 154.614C229.25 154.381 228.886 154.264 228.42 154.264H225.718V157.456ZM232.727 165.114L236.381 152.64H237.389L233.735 165.114H232.727ZM239.682 153.228H243.7C244.512 153.228 245.147 153.457 245.604 153.914C246.071 154.371 246.304 154.983 246.304 155.748C246.304 156.112 246.253 156.42 246.15 156.672C246.048 156.924 245.917 157.134 245.758 157.302C245.6 157.461 245.427 157.582 245.24 157.666C245.054 157.741 244.881 157.792 244.722 157.82V157.904C244.9 157.913 245.096 157.96 245.31 158.044C245.534 158.128 245.744 158.263 245.94 158.45C246.136 158.627 246.3 158.861 246.43 159.15C246.57 159.43 246.64 159.771 246.64 160.172C246.64 160.573 246.575 160.947 246.444 161.292C246.323 161.637 246.15 161.936 245.926 162.188C245.702 162.44 245.436 162.641 245.128 162.79C244.82 162.93 244.484 163 244.12 163H239.682V153.228ZM240.858 161.964H243.756C244.26 161.964 244.657 161.838 244.946 161.586C245.236 161.325 245.38 160.947 245.38 160.452V159.976C245.38 159.481 245.236 159.108 244.946 158.856C244.657 158.595 244.26 158.464 243.756 158.464H240.858V161.964ZM240.858 157.456H243.56C244.027 157.456 244.391 157.339 244.652 157.106C244.914 156.873 245.044 156.537 245.044 156.098V155.622C245.044 155.183 244.914 154.847 244.652 154.614C244.391 154.381 244.027 154.264 243.56 154.264H240.858V157.456ZM250.355 153.228V159.276C250.355 160.209 250.528 160.919 250.873 161.404C251.218 161.88 251.825 162.118 252.693 162.118C253.561 162.118 254.168 161.88 254.513 161.404C254.858 160.919 255.031 160.209 255.031 159.276V153.228H256.207V158.996C256.207 159.705 256.142 160.321 256.011 160.844C255.89 161.367 255.689 161.801 255.409 162.146C255.129 162.491 254.76 162.748 254.303 162.916C253.855 163.084 253.304 163.168 252.651 163.168C251.998 163.168 251.447 163.084 250.999 162.916C250.56 162.748 250.206 162.491 249.935 162.146C249.664 161.801 249.468 161.367 249.347 160.844C249.235 160.321 249.179 159.705 249.179 158.996V153.228H250.355ZM261.901 163.168C261.108 163.168 260.431 163.019 259.871 162.72C259.311 162.412 258.835 161.992 258.443 161.46L259.311 160.732C259.657 161.189 260.039 161.539 260.459 161.782C260.879 162.015 261.374 162.132 261.943 162.132C262.643 162.132 263.175 161.964 263.539 161.628C263.913 161.292 264.099 160.844 264.099 160.284C264.099 159.817 263.959 159.458 263.679 159.206C263.399 158.954 262.937 158.753 262.293 158.604L261.495 158.422C260.599 158.217 259.913 157.909 259.437 157.498C258.971 157.078 258.737 156.49 258.737 155.734C258.737 155.305 258.817 154.922 258.975 154.586C259.134 154.25 259.353 153.97 259.633 153.746C259.923 153.522 260.263 153.354 260.655 153.242C261.057 153.121 261.495 153.06 261.971 153.06C262.709 153.06 263.339 153.195 263.861 153.466C264.393 153.737 264.841 154.133 265.205 154.656L264.323 155.3C264.053 154.927 263.726 154.633 263.343 154.418C262.961 154.203 262.485 154.096 261.915 154.096C261.29 154.096 260.795 154.231 260.431 154.502C260.077 154.763 259.899 155.16 259.899 155.692C259.899 156.159 260.049 156.513 260.347 156.756C260.655 156.989 261.117 157.176 261.733 157.316L262.531 157.498C263.493 157.713 264.188 158.039 264.617 158.478C265.047 158.917 265.261 159.5 265.261 160.228C265.261 160.676 265.182 161.082 265.023 161.446C264.874 161.81 264.655 162.118 264.365 162.37C264.076 162.622 263.721 162.818 263.301 162.958C262.891 163.098 262.424 163.168 261.901 163.168ZM267.712 153.228H270.988C271.595 153.228 272.145 153.331 272.64 153.536C273.135 153.741 273.555 154.049 273.9 154.46C274.255 154.861 274.525 155.37 274.712 155.986C274.899 156.593 274.992 157.302 274.992 158.114C274.992 158.926 274.899 159.64 274.712 160.256C274.525 160.863 274.255 161.371 273.9 161.782C273.555 162.183 273.135 162.487 272.64 162.692C272.145 162.897 271.595 163 270.988 163H267.712V153.228ZM270.988 161.964C271.389 161.964 271.758 161.899 272.094 161.768C272.43 161.628 272.719 161.427 272.962 161.166C273.205 160.905 273.391 160.587 273.522 160.214C273.662 159.831 273.732 159.397 273.732 158.912V157.316C273.732 156.831 273.662 156.401 273.522 156.028C273.391 155.645 273.205 155.323 272.962 155.062C272.719 154.801 272.43 154.605 272.094 154.474C271.758 154.334 271.389 154.264 270.988 154.264H268.888V161.964H270.988ZM281.141 155.776H282.261V156.952H282.317C282.504 156.495 282.775 156.159 283.129 155.944C283.493 155.72 283.927 155.608 284.431 155.608C284.879 155.608 285.285 155.697 285.649 155.874C286.013 156.051 286.321 156.303 286.573 156.63C286.835 156.957 287.031 157.353 287.161 157.82C287.301 158.287 287.371 158.809 287.371 159.388C287.371 159.967 287.301 160.489 287.161 160.956C287.031 161.423 286.835 161.819 286.573 162.146C286.321 162.473 286.013 162.725 285.649 162.902C285.285 163.079 284.879 163.168 284.431 163.168C283.451 163.168 282.747 162.72 282.317 161.824H282.261V165.8H281.141V155.776ZM284.123 162.16C284.758 162.16 285.257 161.964 285.621 161.572C285.985 161.171 286.167 160.648 286.167 160.004V158.772C286.167 158.128 285.985 157.61 285.621 157.218C285.257 156.817 284.758 156.616 284.123 156.616C283.871 156.616 283.629 156.653 283.395 156.728C283.171 156.793 282.975 156.887 282.807 157.008C282.639 157.129 282.504 157.279 282.401 157.456C282.308 157.624 282.261 157.806 282.261 158.002V160.69C282.261 160.923 282.308 161.133 282.401 161.32C282.504 161.497 282.639 161.651 282.807 161.782C282.975 161.903 283.171 161.997 283.395 162.062C283.629 162.127 283.871 162.16 284.123 162.16ZM294.932 163C294.512 163 294.209 162.888 294.022 162.664C293.845 162.44 293.733 162.16 293.686 161.824H293.616C293.458 162.272 293.196 162.608 292.832 162.832C292.468 163.056 292.034 163.168 291.53 163.168C290.765 163.168 290.168 162.972 289.738 162.58C289.318 162.188 289.108 161.656 289.108 160.984C289.108 160.303 289.356 159.78 289.85 159.416C290.354 159.052 291.134 158.87 292.188 158.87H293.616V158.156C293.616 157.643 293.476 157.251 293.196 156.98C292.916 156.709 292.487 156.574 291.908 156.574C291.47 156.574 291.101 156.672 290.802 156.868C290.513 157.064 290.27 157.325 290.074 157.652L289.402 157.022C289.598 156.63 289.911 156.299 290.34 156.028C290.77 155.748 291.311 155.608 291.964 155.608C292.842 155.608 293.523 155.823 294.008 156.252C294.494 156.681 294.736 157.279 294.736 158.044V162.02H295.562V163H294.932ZM291.712 162.216C291.992 162.216 292.249 162.183 292.482 162.118C292.716 162.053 292.916 161.959 293.084 161.838C293.252 161.717 293.383 161.577 293.476 161.418C293.57 161.259 293.616 161.087 293.616 160.9V159.71H292.132C291.488 159.71 291.017 159.803 290.718 159.99C290.429 160.177 290.284 160.447 290.284 160.802V161.096C290.284 161.451 290.41 161.726 290.662 161.922C290.924 162.118 291.274 162.216 291.712 162.216ZM298.141 154.082C297.898 154.082 297.721 154.026 297.609 153.914C297.506 153.793 297.455 153.639 297.455 153.452V153.27C297.455 153.083 297.506 152.934 297.609 152.822C297.721 152.701 297.898 152.64 298.141 152.64C298.383 152.64 298.556 152.701 298.659 152.822C298.771 152.934 298.827 153.083 298.827 153.27V153.452C298.827 153.639 298.771 153.793 298.659 153.914C298.556 154.026 298.383 154.082 298.141 154.082ZM297.581 155.776H298.701V163H297.581V155.776ZM301.501 163V155.776H302.621V157.106H302.691C302.821 156.761 303.055 156.453 303.391 156.182C303.727 155.911 304.189 155.776 304.777 155.776H305.211V156.896H304.553C303.946 156.896 303.47 157.013 303.125 157.246C302.789 157.47 302.621 157.755 302.621 158.1V163H301.501ZM309.399 158.632C309.399 159.313 309.329 159.971 309.189 160.606C309.059 161.231 308.877 161.815 308.643 162.356C308.419 162.897 308.153 163.387 307.845 163.826C307.537 164.265 307.211 164.629 306.865 164.918H305.801C306.184 164.582 306.529 164.19 306.837 163.742C307.155 163.294 307.425 162.818 307.649 162.314C307.873 161.81 308.046 161.297 308.167 160.774C308.289 160.251 308.349 159.743 308.349 159.248V158.044C308.349 157.559 308.289 157.055 308.167 156.532C308.046 156.009 307.873 155.496 307.649 154.992C307.435 154.488 307.169 154.012 306.851 153.564C306.543 153.116 306.193 152.715 305.801 152.36H306.865C307.22 152.668 307.551 153.041 307.859 153.48C308.167 153.919 308.433 154.409 308.657 154.95C308.891 155.482 309.073 156.061 309.203 156.686C309.334 157.311 309.399 157.96 309.399 158.632Z" fill="#8E8E8E"/>
<rect x="20" y="183" width="332" height="1" fill="#2D2D2D"/>
<rect x="36" y="205.5" width="38" height="38" rx="8" fill="#282828"/>
<path d="M56.6668 222H62.5002C62.9585 222 63.3335 221.625 63.3335 221.167C63.3335 220.708 62.9585 220.333 62.5002 220.333H56.6668C56.2085 220.333 55.8335 220.708 55.8335 221.167C55.8335 221.625 56.2085 222 56.6668 222Z" fill="#888C91"/>
<path d="M62.5002 227H56.6668C56.2085 227 55.8335 227.375 55.8335 227.833C55.8335 228.292 56.2085 228.667 56.6668 228.667H62.5002C62.9585 228.667 63.3335 228.292 63.3335 227.833C63.3335 227.375 62.9585 227 62.5002 227Z" fill="#888C91"/>
<path d="M62.5002 223.667H59.1668C58.7085 223.667 58.3335 224.042 58.3335 224.5C58.3335 224.959 58.7085 225.334 59.1668 225.334H62.5002C62.9585 225.334 63.3335 224.959 63.3335 224.5C63.3335 224.042 62.9585 223.667 62.5002 223.667Z" fill="#888C91"/>
<path d="M52.3751 221.042C52.1167 220.784 51.6667 220.967 51.6667 221.342V223.667H47.5001C47.0417 223.667 46.6667 224.042 46.6667 224.5C46.6667 224.959 47.0417 225.334 47.5001 225.334H51.6667V227.659C51.6667 228.034 52.1167 228.217 52.3751 227.95L55.5334 224.792C55.7001 224.625 55.7001 224.367 55.5334 224.2L52.3751 221.042Z" fill="#888C91"/>
<path d="M106.672 225H95.92V223.536L101.776 217.92C102.56 217.152 103.2 216.368 103.696 215.568C104.192 214.752 104.44 213.92 104.44 213.072V212.616C104.44 211.624 104.152 210.816 103.576 210.192C103 209.568 102.136 209.256 100.984 209.256C99.864 209.256 99.008 209.536 98.416 210.096C97.824 210.656 97.392 211.384 97.12 212.28L95.824 211.8C95.984 211.288 96.2 210.8 96.472 210.336C96.744 209.872 97.088 209.464 97.504 209.112C97.936 208.76 98.44 208.48 99.016 208.272C99.592 208.064 100.264 207.96 101.032 207.96C101.816 207.96 102.512 208.08 103.12 208.32C103.744 208.544 104.264 208.864 104.68 209.28C105.112 209.696 105.432 210.2 105.64 210.792C105.864 211.368 105.976 212.016 105.976 212.736C105.976 213.344 105.896 213.92 105.736 214.464C105.576 214.992 105.352 215.504 105.064 216C104.776 216.48 104.424 216.96 104.008 217.44C103.592 217.904 103.136 218.368 102.64 218.832L97.48 223.728H106.672V225ZM116.311 225.288C112.535 225.288 110.647 222.4 110.647 216.624C110.647 210.848 112.535 207.96 116.311 207.96C120.087 207.96 121.975 210.848 121.975 216.624C121.975 222.4 120.087 225.288 116.311 225.288ZM116.311 224.04C117.719 224.04 118.759 223.48 119.431 222.36C120.119 221.24 120.463 219.704 120.463 217.752V215.496C120.463 213.544 120.119 212.008 119.431 210.888C118.759 209.768 117.719 209.208 116.311 209.208C114.887 209.208 113.839 209.768 113.167 210.888C112.495 212.008 112.159 213.544 112.159 215.496V217.752C112.159 219.704 112.495 221.24 113.167 222.36C113.839 223.48 114.887 224.04 116.311 224.04ZM128.661 225L140.277 208.248H141.621L130.005 225H128.661ZM129.525 217.344C128.421 217.344 127.533 216.96 126.861 216.192C126.205 215.424 125.877 214.248 125.877 212.664C125.877 211.064 126.205 209.88 126.861 209.112C127.533 208.344 128.421 207.96 129.525 207.96C130.629 207.96 131.509 208.344 132.165 209.112C132.837 209.88 133.173 211.064 133.173 212.664C133.173 214.248 132.837 215.424 132.165 216.192C131.509 216.96 130.629 217.344 129.525 217.344ZM129.525 216.432C130.245 216.432 130.821 216.176 131.253 215.664C131.701 215.152 131.925 214.344 131.925 213.24V212.064C131.925 210.96 131.701 210.152 131.253 209.64C130.821 209.128 130.245 208.872 129.525 208.872C128.805 208.872 128.221 209.128 127.773 209.64C127.341 210.152 127.125 210.96 127.125 212.064V213.24C127.125 214.344 127.341 215.152 127.773 215.664C128.221 216.176 128.805 216.432 129.525 216.432ZM140.709 225.288C139.605 225.288 138.717 224.904 138.045 224.136C137.389 223.368 137.061 222.192 137.061 220.608C137.061 219.008 137.389 217.824 138.045 217.056C138.717 216.288 139.605 215.904 140.709 215.904C141.813 215.904 142.693 216.288 143.349 217.056C144.021 217.824 144.357 219.008 144.357 220.608C144.357 222.192 144.021 223.368 143.349 224.136C142.693 224.904 141.813 225.288 140.709 225.288ZM140.709 224.376C141.429 224.376 142.005 224.12 142.437 223.608C142.885 223.096 143.109 222.288 143.109 221.184V220.008C143.109 218.904 142.885 218.096 142.437 217.584C142.005 217.072 141.429 216.816 140.709 216.816C139.989 216.816 139.405 217.072 138.957 217.584C138.525 218.096 138.309 218.904 138.309 220.008V221.184C138.309 222.288 138.525 223.096 138.957 223.608C139.405 224.12 139.989 224.376 140.709 224.376Z" fill="white"/>
<path d="M95.302 245V235.228H96.478V243.964H100.636V245H95.302ZM105.203 245.168C104.708 245.168 104.26 245.079 103.859 244.902C103.467 244.725 103.126 244.473 102.837 244.146C102.557 243.81 102.338 243.413 102.179 242.956C102.03 242.489 101.955 241.967 101.955 241.388C101.955 240.819 102.03 240.301 102.179 239.834C102.338 239.367 102.557 238.971 102.837 238.644C103.126 238.308 103.467 238.051 103.859 237.874C104.26 237.697 104.708 237.608 105.203 237.608C105.688 237.608 106.122 237.697 106.505 237.874C106.888 238.051 107.214 238.299 107.485 238.616C107.756 238.924 107.961 239.293 108.101 239.722C108.25 240.151 108.325 240.623 108.325 241.136V241.668H103.131V242.004C103.131 242.312 103.178 242.601 103.271 242.872C103.374 243.133 103.514 243.362 103.691 243.558C103.878 243.754 104.102 243.908 104.363 244.02C104.634 244.132 104.937 244.188 105.273 244.188C105.73 244.188 106.127 244.081 106.463 243.866C106.808 243.651 107.074 243.343 107.261 242.942L108.059 243.516C107.826 244.011 107.462 244.412 106.967 244.72C106.472 245.019 105.884 245.168 105.203 245.168ZM105.203 238.546C104.895 238.546 104.615 238.602 104.363 238.714C104.111 238.817 103.892 238.966 103.705 239.162C103.528 239.358 103.388 239.591 103.285 239.862C103.182 240.123 103.131 240.413 103.131 240.73V240.828H107.121V240.674C107.121 240.03 106.944 239.517 106.589 239.134C106.244 238.742 105.782 238.546 105.203 238.546ZM110.591 245V237.776H111.711V238.952H111.767C111.944 238.541 112.191 238.215 112.509 237.972C112.835 237.729 113.269 237.608 113.811 237.608C114.557 237.608 115.145 237.851 115.575 238.336C116.013 238.812 116.233 239.489 116.233 240.366V245H115.113V240.562C115.113 239.265 114.567 238.616 113.475 238.616C113.251 238.616 113.031 238.644 112.817 238.7C112.611 238.756 112.425 238.84 112.257 238.952C112.089 239.064 111.953 239.209 111.851 239.386C111.757 239.554 111.711 239.755 111.711 239.988V245H110.591ZM123.588 243.824H123.532C123.093 244.72 122.388 245.168 121.418 245.168C120.97 245.168 120.564 245.079 120.2 244.902C119.836 244.725 119.523 244.473 119.262 244.146C119.01 243.819 118.814 243.423 118.674 242.956C118.543 242.489 118.478 241.967 118.478 241.388C118.478 240.809 118.543 240.287 118.674 239.82C118.814 239.353 119.01 238.957 119.262 238.63C119.523 238.303 119.836 238.051 120.2 237.874C120.564 237.697 120.97 237.608 121.418 237.608C121.922 237.608 122.351 237.72 122.706 237.944C123.07 238.159 123.345 238.495 123.532 238.952H123.588V234.64H124.708V245H123.588V243.824ZM121.726 244.16C121.978 244.16 122.216 244.127 122.44 244.062C122.673 243.997 122.874 243.903 123.042 243.782C123.21 243.651 123.34 243.497 123.434 243.32C123.536 243.133 123.588 242.923 123.588 242.69V240.002C123.588 239.806 123.536 239.624 123.434 239.456C123.34 239.279 123.21 239.129 123.042 239.008C122.874 238.887 122.673 238.793 122.44 238.728C122.216 238.653 121.978 238.616 121.726 238.616C121.091 238.616 120.592 238.817 120.228 239.218C119.864 239.61 119.682 240.128 119.682 240.772V242.004C119.682 242.648 119.864 243.171 120.228 243.572C120.592 243.964 121.091 244.16 121.726 244.16ZM137.467 245L136.487 242.116H132.539L131.559 245H130.369L133.785 235.228H135.283L138.699 245H137.467ZM134.541 236.32H134.471L132.819 241.08H136.193L134.541 236.32ZM140.738 245V235.228H144.63C145.507 235.228 146.179 235.48 146.646 235.984C147.122 236.479 147.36 237.16 147.36 238.028C147.36 238.896 147.122 239.582 146.646 240.086C146.179 240.581 145.507 240.828 144.63 240.828H141.914V245H140.738ZM141.914 239.792H144.63C145.097 239.792 145.456 239.671 145.708 239.428C145.969 239.185 146.1 238.84 146.1 238.392V237.664C146.1 237.216 145.969 236.871 145.708 236.628C145.456 236.385 145.097 236.264 144.63 236.264H141.914V239.792ZM150.824 245H149.648V235.228H153.54C154.399 235.228 155.066 235.466 155.542 235.942C156.028 236.418 156.27 237.104 156.27 238C156.27 238.719 156.102 239.311 155.766 239.778C155.44 240.235 154.954 240.539 154.31 240.688L156.55 245H155.22L153.106 240.8H150.824V245ZM153.54 239.792C154.007 239.792 154.366 239.671 154.618 239.428C154.88 239.185 155.01 238.84 155.01 238.392V237.664C155.01 237.216 154.88 236.871 154.618 236.628C154.366 236.385 154.007 236.264 153.54 236.264H150.824V239.792H153.54Z" fill="#8E8E8E"/>
<rect x="20" y="265" width="332" height="1" fill="#2D2D2D"/>
</g>
<defs>
<filter id="filter0_f_8855_52715" x="-8" y="0" width="388" height="294" filterUnits="userSpaceOnUse" color-interpolation-filters="sRGB">
<feFlood flood-opacity="0" result="BackgroundImageFix"/>
<feBlend mode="normal" in="SourceGraphic" in2="BackgroundImageFix" result="shape"/>
<feGaussianBlur stdDeviation="14" result="effect1_foregroundBlur_8855_52715"/>
</filter>
</defs>
</svg>
