<svg width="39" height="39" viewBox="0 0 39 39" fill="none" xmlns="http://www.w3.org/2000/svg">
<rect x="0.75" y="0.5" width="38" height="38" rx="8" fill="#282828"/>
<path d="M21.4167 16.9997H18.0833C17.625 16.9997 17.25 16.6247 17.25 16.1663C17.25 15.708 17.625 15.333 18.0833 15.333H21.4167C21.875 15.333 22.25 15.708 22.25 16.1663C22.25 16.6247 21.875 16.9997 21.4167 16.9997Z" fill="#8E8E8E"/>
<path d="M21.4167 19.4997H18.0833C17.625 19.4997 17.25 19.1247 17.25 18.6663C17.25 18.208 17.625 17.833 18.0833 17.833H21.4167C21.875 17.833 22.25 18.208 22.25 18.6663C22.25 19.1247 21.875 19.4997 21.4167 19.4997Z" fill="#8E8E8E"/>
<path d="M26 12.4165L24.75 11.1665L23.5 12.4165L22.25 11.1665L21 12.4165L19.75 11.1665L18.5 12.4165L17.25 11.1665L16 12.4165L14.75 11.1665V22.8332H13.0833C12.625 22.8332 12.25 23.2082 12.25 23.6665V25.3332C12.25 26.7165 13.3667 27.8332 14.75 27.8332H24.75C26.1333 27.8332 27.25 26.7165 27.25 25.3332V11.1665L26 12.4165ZM22.25 26.1665H14.75C14.2917 26.1665 13.9167 25.7915 13.9167 25.3332V24.4998H16.4167H19.75H22.25V26.1665ZM25.5833 25.3332C25.5833 25.7915 25.2083 26.1665 24.75 26.1665C24.2917 26.1665 23.9167 25.7915 23.9167 25.3332V23.6665C23.9167 23.2082 23.5417 22.8332 23.0833 22.8332H21.4167H19.75H16.4167V13.6665H25.5833V25.3332Z" fill="#8E8E8E"/>
<path d="M23.9166 16.9997C24.3768 16.9997 24.7499 16.6266 24.7499 16.1663C24.7499 15.7061 24.3768 15.333 23.9166 15.333C23.4563 15.333 23.0833 15.7061 23.0833 16.1663C23.0833 16.6266 23.4563 16.9997 23.9166 16.9997Z" fill="#8E8E8E"/>
<path d="M23.9166 19.4997C24.3768 19.4997 24.7499 19.1266 24.7499 18.6663C24.7499 18.2061 24.3768 17.833 23.9166 17.833C23.4563 17.833 23.0833 18.2061 23.0833 18.6663C23.0833 19.1266 23.4563 19.4997 23.9166 19.4997Z" fill="#8E8E8E"/>
</svg>
