<svg width="38" height="39" viewBox="0 0 38 39" fill="none" xmlns="http://www.w3.org/2000/svg">
<rect y="0.5" width="38" height="38" rx="8" fill="#282828"/>
<path d="M20.6668 17.0002H26.5002C26.9585 17.0002 27.3335 16.6252 27.3335 16.1668C27.3335 15.7085 26.9585 15.3335 26.5002 15.3335H20.6668C20.2085 15.3335 19.8335 15.7085 19.8335 16.1668C19.8335 16.6252 20.2085 17.0002 20.6668 17.0002Z" fill="#888C91"/>
<path d="M26.5002 22H20.6668C20.2085 22 19.8335 22.375 19.8335 22.8333C19.8335 23.2917 20.2085 23.6667 20.6668 23.6667H26.5002C26.9585 23.6667 27.3335 23.2917 27.3335 22.8333C27.3335 22.375 26.9585 22 26.5002 22Z" fill="#888C91"/>
<path d="M26.5002 18.667H23.1668C22.7085 18.667 22.3335 19.042 22.3335 19.5003C22.3335 19.9587 22.7085 20.3337 23.1668 20.3337H26.5002C26.9585 20.3337 27.3335 19.9587 27.3335 19.5003C27.3335 19.042 26.9585 18.667 26.5002 18.667Z" fill="#888C91"/>
<path d="M16.3751 16.0419C16.1167 15.7836 15.6667 15.9669 15.6667 16.3419V18.6669H11.5001C11.0417 18.6669 10.6667 19.0419 10.6667 19.5002C10.6667 19.9586 11.0417 20.3336 11.5001 20.3336H15.6667V22.6586C15.6667 23.0336 16.1167 23.2169 16.3751 22.9502L19.5334 19.7919C19.7001 19.6252 19.7001 19.3669 19.5334 19.2002L16.3751 16.0419Z" fill="#888C91"/>
</svg>
