<svg width="39" height="39" viewBox="0 0 39 39" fill="none" xmlns="http://www.w3.org/2000/svg">
<rect x="0.75" y="0.5" width="38" height="38" rx="8" fill="#282828"/>
<path d="M22.2499 12.8335C18.5666 12.8335 15.5833 15.8168 15.5833 19.5002C15.5833 23.1835 18.5666 26.1668 22.2499 26.1668C25.9333 26.1668 28.9166 23.1835 28.9166 19.5002C28.9166 15.8168 25.9333 12.8335 22.2499 12.8335ZM22.2499 24.5002C19.4916 24.5002 17.2499 22.2585 17.2499 19.5002C17.2499 16.7418 19.4916 14.5002 22.2499 14.5002C25.0083 14.5002 27.2499 16.7418 27.2499 19.5002C27.2499 22.2585 25.0083 24.5002 22.2499 24.5002ZM12.2499 19.5002C12.2499 17.3252 13.6416 15.4752 15.5833 14.7918V13.0502C12.7083 13.7918 10.5833 16.3918 10.5833 19.5002C10.5833 22.6085 12.7083 25.2085 15.5833 25.9502V24.2085C13.6416 23.5252 12.2499 21.6752 12.2499 19.5002Z" fill="#00D870"/>
</svg>
