<svg width="38" height="39" viewBox="0 0 38 39" fill="none" xmlns="http://www.w3.org/2000/svg">
<rect y="0.5" width="38" height="38" rx="8" fill="#282828"/>
<path d="M23.7917 12C25.2874 12 26.5 13.2126 26.5 14.7083V24.2917C26.5 25.7874 25.2874 27 23.7917 27H14.2083C12.7126 27 11.5 25.7874 11.5 24.2917V14.7083C11.5 13.2126 12.7126 12 14.2083 12H23.7917ZM23.7917 13.25H14.2083C13.4029 13.25 12.75 13.9029 12.75 14.7083V24.2917C12.75 25.0971 13.4029 25.75 14.2083 25.75H23.7917C24.5971 25.75 25.25 25.0971 25.25 24.2917V14.7083C25.25 13.9029 24.5971 13.25 23.7917 13.25ZM15.4583 15.3333C15.7747 15.3333 16.0362 15.5685 16.0776 15.8735L16.0833 15.9583V16.7917C16.0833 17.1368 15.8035 17.4167 15.4583 17.4167C15.1419 17.4167 14.8804 17.1815 14.839 16.8765L14.8333 16.7917V15.9583C14.8333 15.6132 15.1132 15.3333 15.4583 15.3333Z" fill="#8E8E8E"/>
<path d="M16.0776 22.1235C16.0362 21.8185 15.7747 21.5833 15.4583 21.5833C15.1132 21.5833 14.8333 21.8632 14.8333 22.2083V23.0417L14.839 23.1265C14.8804 23.4315 15.1419 23.6667 15.4583 23.6667C15.8035 23.6667 16.0833 23.3868 16.0833 23.0417V22.2083L16.0776 22.1235Z" fill="#8E8E8E"/>
<path d="M16.0833 18.9343C16.0419 18.6292 15.7805 18.3941 15.464 18.3941C15.1189 18.3941 14.839 18.6739 14.839 19.0191L14.8333 19.976L14.839 20.0608C14.8804 20.3658 15.1419 20.601 15.4583 20.601C15.8035 20.601 16.0833 20.3211 16.0833 19.976L16.089 19.0191L16.0833 18.9343Z" fill="#8E8E8E"/>
</svg>
