<svg width="24" height="24" viewBox="0 0 24 24" fill="none" xmlns="http://www.w3.org/2000/svg">
<path d="M17 0C17.5523 0 18 0.447715 18 1V3C18 3.55228 17.5523 4 17 4C16.4477 4 16 3.55228 16 3V1C16 0.447715 16.4477 0 17 0Z" fill="#3DD598"/>
<path d="M17 12C17.5523 12 18 12.4477 18 13V19C18 19.5523 17.5523 20 17 20C16.4477 20 16 19.5523 16 19V13C16 12.4477 16.4477 12 17 12Z" fill="#3DD598"/>
<path d="M7 4C7.55228 4 8 4.44772 8 5V13C8 13.5523 7.55228 14 7 14C6.44772 14 6 13.5523 6 13V5C6 4.44772 6.44772 4 7 4Z" fill="#3DD598"/>
<path d="M7 18C7.55228 18 8 18.4477 8 19V23C8 23.5523 7.55228 24 7 24C6.44772 24 6 23.5523 6 23V19C6 18.4477 6.44772 18 7 18Z" fill="#3DD598"/>
<path fill-rule="evenodd" clip-rule="evenodd" d="M14 5C14 3.34315 15.3431 2 17 2C18.6569 2 20 3.34315 20 5V11C20 12.6569 18.6569 14 17 14C15.3431 14 14 12.6569 14 11V5ZM18 5V11C18 11.5523 17.5523 12 17 12C16.4477 12 16 11.5523 16 11V5C16 4.44772 16.4477 4 17 4C17.5523 4 18 4.44772 18 5Z" fill="#3DD598"/>
<path fill-rule="evenodd" clip-rule="evenodd" d="M4 15C4 13.3431 5.34315 12 7 12C8.65685 12 10 13.3431 10 15V17C10 18.6569 8.65685 20 7 20C5.34315 20 4 18.6569 4 17V15ZM8 15V17C8 17.5523 7.55228 18 7 18C6.44772 18 6 17.5523 6 17V15C6 14.4477 6.44772 14 7 14C7.55228 14 8 14.4477 8 15Z" fill="#3DD598"/>
</svg>
